<?xml version="1.0" encoding="UTF-8" standalone="no"?>
<!-- Created with Inkscape (http://www.inkscape.org/) -->

<svg
   xmlns:dc="http://purl.org/dc/elements/1.1/"
   xmlns:cc="http://creativecommons.org/ns#"
   xmlns:rdf="http://www.w3.org/1999/02/22-rdf-syntax-ns#"
   xmlns:svg="http://www.w3.org/2000/svg"
   xmlns="http://www.w3.org/2000/svg"
   xmlns:sodipodi="http://sodipodi.sourceforge.net/DTD/sodipodi-0.dtd"
   xmlns:inkscape="http://www.inkscape.org/namespaces/inkscape"
   id="svg2985"
   version="1.1"
   inkscape:version="0.48.5 r10040"
   width="1000"
   height="124.1032"
   xml:space="preserve"
   sodipodi:docname="A.svg"><metadata
     id="metadata2991"><rdf:RDF><cc:Work
         rdf:about=""><dc:format>image/svg+xml</dc:format><dc:type
           rdf:resource="http://purl.org/dc/dcmitype/StillImage" /><dc:title></dc:title></cc:Work></rdf:RDF></metadata><defs
     id="defs2989"><clipPath
       clipPathUnits="userSpaceOnUse"
       id="clipPath3007"><path
         d="M 116.15,36.833 C 89.43,28.264 61.87,15.079 36.291,0 l 0,0 107.746,0 0,36.833 -27.887,0 z"
         id="path3009"
         inkscape:connector-curvature="0" /></clipPath><clipPath
       clipPathUnits="userSpaceOnUse"
       id="clipPath3019"><path
         d="m 0,0 576,0 0,44.64 -576,0 L 0,0 z"
         id="path3021"
         inkscape:connector-curvature="0" /></clipPath><clipPath
       clipPathUnits="userSpaceOnUse"
       id="clipPath3033"><path
         d="M 260.186,36.833 C 233.467,28.264 205.906,15.079 180.328,0 l 0,0 107.746,0 0,36.833 -27.888,0 z"
         id="path3035"
         inkscape:connector-curvature="0" /></clipPath><clipPath
       clipPathUnits="userSpaceOnUse"
       id="clipPath3045"><path
         d="m 0,0 576,0 0,44.64 -576,0 L 0,0 z"
         id="path3047"
         inkscape:connector-curvature="0" /></clipPath><clipPath
       clipPathUnits="userSpaceOnUse"
       id="clipPath3059"><path
         d="M 404.223,36.833 C 377.505,28.264 349.943,15.079 324.365,0 l 0,0 107.747,0 0,36.833 -27.889,0 z"
         id="path3061"
         inkscape:connector-curvature="0" /></clipPath><clipPath
       clipPathUnits="userSpaceOnUse"
       id="clipPath3071"><path
         d="m 0,0 576,0 0,44.64 -576,0 L 0,0 z"
         id="path3073"
         inkscape:connector-curvature="0" /></clipPath><clipPath
       clipPathUnits="userSpaceOnUse"
       id="clipPath3085"><path
         d="M 548.26,36.833 C 521.542,28.264 493.981,15.079 468.402,0 l 0,0 107.598,0 0,36.833 -27.74,0 z"
         id="path3087"
         inkscape:connector-curvature="0" /></clipPath><clipPath
       clipPathUnits="userSpaceOnUse"
       id="clipPath3097"><path
         d="m 0,0 576,0 0,44.64 -576,0 L 0,0 z"
         id="path3099"
         inkscape:connector-curvature="0" /></clipPath><clipPath
       clipPathUnits="userSpaceOnUse"
       id="clipPath3109"><path
         d="m 36.086,46.061 150.358,0 0,42.789 -150.358,0 0,-42.789 z"
         id="path3111"
         inkscape:connector-curvature="0" /></clipPath><clipPath
       clipPathUnits="userSpaceOnUse"
       id="clipPath3217"><path
         d="m 384.88,61.621 169.385,0 0,7.789 -169.385,0 0,-7.789 z"
         id="path3219"
         inkscape:connector-curvature="0" /></clipPath></defs><sodipodi:namedview
     pagecolor="#ffffff"
     bordercolor="#666666"
     borderopacity="1"
     objecttolerance="10"
     gridtolerance="10"
     guidetolerance="10"
     inkscape:pageopacity="0"
     inkscape:pageshadow="2"
     inkscape:window-width="997"
     inkscape:window-height="1034"
     id="namedview2987"
     showgrid="false"
     fit-margin-top="0"
     fit-margin-left="0"
     fit-margin-right="0"
     fit-margin-bottom="0"
     inkscape:zoom="0.26791992"
     inkscape:cx="1338.4347"
     inkscape:cy="60.140849"
     inkscape:window-x="917"
     inkscape:window-y="-17"
     inkscape:window-maximized="0"
     inkscape:current-layer="g2993" /><g
     id="g2993"
     inkscape:groupmode="layer"
     inkscape:label="ACP_2018_Booklet"
     transform="matrix(1.25,0,0,-1.25,-52.021496,200.98033)"><g
       id="g3121"
       transform="matrix(5.6374354,0,0,5.6374354,258.76895,70.856461)"
       style="fill:#0067b1;fill-opacity:1"><path
         d="M 0,0 C 0.654,0 0.947,0.587 0.947,2.659 0.947,4.547 0.751,5.25 0,5.25 -0.747,5.25 -0.942,4.547 -0.942,2.659 -0.942,0.587 -0.649,0 0,0 m 0,6.912 c 2.464,0 3.684,-1.809 3.684,-4.253 0,-2.542 -1.171,-4.318 -3.684,-4.318 -2.507,0 -3.683,1.776 -3.683,4.318 0,2.444 1.225,4.253 3.683,4.253"
         style="fill:#0067b1;fill-opacity:1;fill-rule:nonzero;stroke:none"
         id="path3123"
         inkscape:connector-curvature="0" /></g><g
       id="g3125"
       transform="matrix(5.6374354,0,0,5.6374354,289.13218,98.133756)"
       style="fill:#0067b1;fill-opacity:1"><path
         d="m 0,0 -1.073,0 0,1.857 1.073,0 0,0.912 c 0,2.004 0.991,2.739 2.737,2.739 0.522,0 0.913,-0.051 1.336,-0.1 l 0,-2.02 C 3.927,3.42 3.732,3.455 3.586,3.455 2.888,3.455 2.64,3.181 2.64,2.687 l 0,-0.83 1.433,0 0,-1.857 -1.433,0 0,-6.322 -2.64,0 L 0,0 z"
         style="fill:#0067b1;fill-opacity:1;fill-rule:nonzero;stroke:none"
         id="path3127"
         inkscape:connector-curvature="0" /></g><g
       id="g3129"
       transform="matrix(5.6374354,0,0,5.6374354,115.58993,84.623078)"
       style="fill:#0067b1;fill-opacity:1"><path
         d="m 0,0 c -0.926,-0.086 -1.614,-0.439 -1.614,-1.482 0,-0.573 0.292,-0.868 0.766,-0.868 0.298,0 0.62,0.211 0.848,0.508 L 0,0 z m 0,1.973 c 0,0.49 -0.228,0.812 -0.687,0.812 -0.634,0 -0.834,-0.597 -0.863,-1.073 l -2.298,0.472 c 0.293,1.612 1.761,2.264 3.259,2.264 1.58,0 3.229,-0.685 3.229,-2.49 l 0,-4.564 c 0,-0.932 0.146,-1.207 0.243,-1.321 l -2.721,0 c -0.049,0.226 -0.068,0.612 -0.083,0.751 -0.45,-0.478 -1.229,-0.908 -2.01,-0.908 -1.313,0 -2.317,0.89 -2.278,2.395 C -4.151,0.439 -1.745,1.07 0,1.27 l 0,0.703 z"
         style="fill:#0067b1;fill-opacity:1;fill-rule:nonzero;stroke:none"
         id="path3131"
         inkscape:connector-curvature="0" /></g><g
       id="g3133"
       transform="matrix(5.6374354,0,0,5.6374354,154.04457,95.458793)"
       style="fill:#0067b1;fill-opacity:1"><path
         d="m 0,0 0,-5.85 -2.639,0 0,8.181 2.58,0 0.015,-0.837 0.034,0 c 0.546,0.556 1.274,1.032 2.303,1.032 1.152,0 1.814,-0.78 1.814,-1.907 l 0,-6.469 -2.639,0 0,5.633 C 1.468,0.248 1.302,0.506 0.859,0.506 0.561,0.506 0.24,0.312 0,0"
         style="fill:#0067b1;fill-opacity:1;fill-rule:nonzero;stroke:none"
         id="path3135"
         inkscape:connector-curvature="0" /></g><g
       id="g3137"
       transform="matrix(5.6374354,0,0,5.6374354,186.44066,127.89321)"
       style="fill:#0067b1;fill-opacity:1"><path
         d="m 0,0 2.639,0 0,-5.891 0.034,0 1.942,2.469 2.625,0 -2.206,-2.516 2.22,-5.663 -2.738,0 -1.286,3.571 -0.035,0 -0.556,-0.641 0,-2.93 -2.639,0 L 0,0 z"
         style="fill:#0067b1;fill-opacity:1;fill-rule:nonzero;stroke:none"
         id="path3139"
         inkscape:connector-curvature="0" /></g><g
       id="g3141"
       transform="matrix(5.6374354,0,0,5.6374354,57.67825,101.98187)"
       style="fill:#0067b1;fill-opacity:1"><path
         d="m 0,0 0.961,0 c 1.062,0 1.483,0.57 1.483,1.257 0,1.106 -0.751,1.286 -1.416,1.286 L 0,2.543 0,0 z m 0,-4.856 1.074,0 c 0.638,0 1.482,0.279 1.482,1.467 0,0.866 -0.533,1.436 -1.482,1.436 L 0,-1.953 0,-4.856 z M 3.249,-0.97 C 4.508,-1.385 5.42,-2.416 5.42,-3.899 5.42,-5.885 3.824,-7.004 1.619,-7.004 l -4.468,0 0,11.6 4.585,0 c 2.059,0 3.406,-1.231 3.406,-2.834 0,-1.519 -1.053,-2.314 -1.893,-2.641 l 0,-0.091 z"
         style="fill:#0067b1;fill-opacity:1;fill-rule:nonzero;stroke:none"
         id="path3143"
         inkscape:connector-curvature="0" /></g><g
       id="g3145"
       transform="matrix(5.6374354,0,0,5.6374354,613.73176,84.623078)"
       style="fill:#0067b1;fill-opacity:1"><path
         d="m 0,0 c -0.921,-0.086 -1.614,-0.439 -1.614,-1.482 0,-0.573 0.297,-0.868 0.77,-0.868 0.298,0 0.62,0.211 0.844,0.508 L 0,0 z m 0,1.973 c 0,0.49 -0.224,0.812 -0.682,0.812 -0.635,0 -0.835,-0.597 -0.864,-1.073 l -2.298,0.472 c 0.292,1.612 1.761,2.264 3.259,2.264 1.581,0 3.226,-0.685 3.226,-2.49 l 0,-4.564 c 0,-0.932 0.149,-1.207 0.247,-1.321 l -2.722,0 c -0.048,0.226 -0.067,0.612 -0.083,0.751 -0.454,-0.478 -1.229,-0.908 -2.01,-0.908 -1.317,0 -2.317,0.89 -2.278,2.395 C -4.146,0.439 -1.741,1.07 0,1.27 l 0,0.703 z"
         style="fill:#0067b1;fill-opacity:1;fill-rule:nonzero;stroke:none"
         id="path3147"
         inkscape:connector-curvature="0" /></g><g
       id="g3149"
       transform="matrix(5.6374354,0,0,5.6374354,471.87359,91.179979)"
       style="fill:#0067b1;fill-opacity:1"><path
         d="M 0,0 C 0.025,0.757 -0.082,1.644 -0.994,1.644 -1.746,1.644 -2.013,0.77 -1.974,0 L 0,0 z m -1.974,-1.569 c -0.035,-0.725 0.155,-1.938 1.224,-1.938 0.634,0 1.171,0.465 1.302,1.124 L 2.328,-3.035 C 2.216,-3.41 1.401,-5.264 -0.946,-5.264 c -2.526,0 -3.664,2.035 -3.664,4.302 0,2.31 1.201,4.268 3.63,4.268 2.547,0 3.424,-2.182 3.424,-4.318 l 0,-0.557 -4.418,0 z"
         style="fill:#0067b1;fill-opacity:1;fill-rule:nonzero;stroke:none"
         id="path3151"
         inkscape:connector-curvature="0" /></g><path
       d="m 525.78157,108.60416 14.88283,0 0,-46.119854 -14.88283,0 0,46.119854 z"
       style="fill:#0067b1;fill-opacity:1;fill-rule:nonzero;stroke:none"
       id="path3153"
       inkscape:connector-curvature="0" /><path
       d="m 525.78157,127.89547 14.88283,0 0,-13.23106 -14.88283,0 0,13.23106 z"
       style="fill:#0067b1;fill-opacity:1;fill-rule:nonzero;stroke:none"
       id="path3155"
       inkscape:connector-curvature="0" /><g
       id="g3157"
       transform="matrix(5.6374354,0,0,5.6374354,573.69019,91.537957)"
       style="fill:#0067b1;fill-opacity:1"><path
         d="m 0,0 c 0,0.326 -0.019,0.718 -0.131,1.026 -0.132,0.327 -0.343,0.554 -0.762,0.554 -0.882,0 -0.979,-1.075 -0.979,-2.705 0,-1.841 0.292,-2.444 0.979,-2.444 0.928,0 1.01,0.944 1.01,1.566 l 2.049,-0.295 c -0.195,-1.988 -1.332,-3.03 -3.259,-3.03 -2.376,0 -3.615,2.083 -3.615,4.106 0,2.233 1.239,4.465 3.727,4.465 2.806,0 3.23,-2.426 3.23,-3.243 L 0,0 z"
         style="fill:#0067b1;fill-opacity:1;fill-rule:nonzero;stroke:none"
         id="path3159"
         inkscape:connector-curvature="0" /></g><g
       id="g3161"
       transform="matrix(5.6374354,0,0,5.6374354,342.10152,87.284512)"
       style="fill:#0067b1;fill-opacity:1"><path
         d="M 0,0 1.877,0 1.044,4.726 0.981,4.726 0,0 z m -0.732,7.201 3.845,0 2.477,-11.601 -2.848,0 -0.459,2.344 -2.688,0 -0.507,-2.344 -2.542,0 2.722,11.601 z"
         style="fill:#0067b1;fill-opacity:1;fill-rule:nonzero;stroke:none"
         id="path3163"
         inkscape:connector-curvature="0" /></g><g
       id="g3165"
       transform="matrix(5.6374354,0,0,5.6374354,491.76529,108.60191)"
       style="fill:#0067b1;fill-opacity:1"><path
         d="m 0,0 2.556,0 0.029,-1.109 0.039,0 c 0.542,0.862 1.526,1.303 2.542,1.303 l 0,-2.672 c -0.297,0.117 -0.62,0.229 -1.073,0.229 -0.674,0 -1.137,-0.265 -1.449,-0.636 l 0,-5.296 L 0,-8.181 0,0 z"
         style="fill:#0067b1;fill-opacity:1;fill-rule:nonzero;stroke:none"
         id="path3167"
         inkscape:connector-curvature="0" /></g><g
       id="g3169"
       transform="matrix(5.6374354,0,0,5.6374354,416.24846,95.387197)"
       style="fill:#0067b1;fill-opacity:1"><path
         d="m 0,0 0,-5.834 -2.591,0 0,5.604 c 0,0.441 -0.131,0.733 -0.62,0.733 -0.278,0 -0.672,-0.201 -0.897,-0.503 l 0,-5.834 -2.59,0 0,8.178 2.576,0 0.014,-0.835 0.03,0 c 0.555,0.522 1.384,1.029 2.365,1.029 0.805,0 1.34,-0.464 1.591,-1.094 l 0.033,0 c 0.46,0.5 1.249,1.094 2.353,1.094 1.097,0 1.843,-0.723 1.843,-1.854 l 0,-6.518 -2.591,0 0,5.604 c 0,0.441 -0.13,0.733 -0.615,0.733 C 0.551,0.503 0.17,0.225 0,0"
         style="fill:#0067b1;fill-opacity:1;fill-rule:nonzero;stroke:none"
         id="path3171"
         inkscape:connector-curvature="0" /></g><g
       id="g3173"
       transform="matrix(5.6374354,0,0,5.6374354,721.18185,136.28454)"
       style="fill:#0067b1;fill-opacity:1"><path
         d="M 0,0 C 1.039,-0.408 2.06,-0.847 3.074,-1.317 -0.151,-2.622 -3.258,-4.173 -6.23,-5.945 -7.234,-5.419 -8.254,-4.918 -9.284,-4.454 -6.321,-2.728 -3.22,-1.235 0,0"
         style="fill:#0067b1;fill-opacity:1;fill-rule:evenodd;stroke:none"
         id="path3175"
         inkscape:connector-curvature="0" /></g><g
       id="g3177"
       transform="matrix(5.6374354,0,0,5.6374354,699.53748,143.92213)"
       style="fill:#0067b1;fill-opacity:1"><path
         d="m 0,0 c -3.341,-1.059 -6.56,-2.442 -9.61,-4.126 0.971,-0.35 1.936,-0.725 2.887,-1.125 2.957,1.739 6.079,3.202 9.329,4.364 C 1.747,-0.569 0.878,-0.273 0,0"
         style="fill:#0067b1;fill-opacity:1;fill-rule:evenodd;stroke:none"
         id="path3179"
         inkscape:connector-curvature="0" /></g><g
       id="g3181"
       transform="matrix(5.6374354,0,0,5.6374354,760.54017,137.03206)"
       style="fill:#ee2a24;fill-opacity:1"><path
         d="M 0,0 C -2.63,1.269 -5.357,2.341 -8.161,3.193 -9.147,2.91 -10.128,2.6 -11.098,2.263 -8.206,1.408 -5.395,0.325 -2.693,-0.971 -1.805,-0.63 -0.903,-0.304 0,0"
         style="fill:#ee2a24;fill-opacity:1;fill-rule:evenodd;stroke:none"
         id="path3183"
         inkscape:connector-curvature="0" /></g><g
       id="g3185"
       transform="matrix(5.6374354,0,0,5.6374354,784.71293,144.23839)"
       style="fill:#ee2a24;fill-opacity:1"><path
         d="M 0,0 C -2.693,1.174 -5.468,2.154 -8.313,2.935 -9.216,2.746 -10.118,2.539 -11.006,2.307 -8.187,1.485 -5.444,0.442 -2.8,-0.8 -1.873,-0.514 -0.941,-0.248 0,0"
         style="fill:#ee2a24;fill-opacity:1;fill-rule:evenodd;stroke:none"
         id="path3187"
         inkscape:connector-curvature="0" /></g><g
       id="g3189"
       transform="matrix(5.6374354,0,0,5.6374354,823.51539,131.18886)"
       style="fill:#ee2a24;fill-opacity:1"><path
         d="m 0,0 c -6.746,-2.272 -13.064,-5.513 -18.781,-9.566 1.429,-0.877 2.824,-1.808 4.18,-2.79 C -9.21,-8.083 -3.229,-4.52 3.211,-1.815 2.157,-1.178 1.088,-0.573 0,0"
         style="fill:#ee2a24;fill-opacity:1;fill-rule:evenodd;stroke:none"
         id="path3191"
         inkscape:connector-curvature="0" /></g><g
       id="g3193"
       transform="matrix(5.6374354,0,0,5.6374354,797.36559,143.6335)"
       style="fill:#ee2a24;fill-opacity:1"><path
         d="m 0,0 c -7.01,-1.855 -13.606,-4.85 -19.548,-8.789 1.336,-0.658 2.653,-1.365 3.942,-2.109 5.824,4.027 12.288,7.168 19.181,9.239 C 2.4,-1.069 1.21,-0.517 0,0"
         style="fill:#ee2a24;fill-opacity:1;fill-rule:evenodd;stroke:none"
         id="path3195"
         inkscape:connector-curvature="0" /></g></g></svg>