<?xml version="1.0" encoding="UTF-8"?>
<svg xmlns="http://www.w3.org/2000/svg" viewBox="0 0 133.95 79.77">
  <defs>
    <style>
      .cls-1 {
        fill: #ec008c;
      }

      .cls-1, .cls-2 {
        mix-blend-mode: multiply;
      }

      .cls-2 {
        fill: #00a651;
      }

      .cls-3 {
        isolation: isolate;
      }
    </style>
  </defs>
  <g class="cls-3">
    <g id="Layer_1" data-name="Layer 1">
      <g>
        <g>
          <path class="cls-2" d="M33.54,45.69c-3.12,1.97-6.05,3.74-8.21,6.29v.1h17.52v5.23h-24.43v-4.27c2.64-4.66,7.15-7.63,10.85-10.27,3.94-2.78,7.39-5.14,7.39-8.88,0-2.59-1.73-5.28-5.52-5.28s-6.24,2.64-7.68,6.67l-4.94-1.97c2.98-7.06,7.58-9.5,13.06-9.5,7.73,0,11.42,4.85,11.42,9.89,0,5.62-4.51,8.88-9.46,12Z"/>
          <path class="cls-1" d="M18.42,57.31v-3.17c0-3.94,2.74-6.96,5.9-9.5,4.99-4.08,11.14-6.62,11.14-12,0-3.41-1.97-5.23-5.18-5.23s-5.23,1.73-6.1,5.9l-5.38-1.15c.96-6.34,5.33-9.89,11.95-9.89,7.06,0,10.85,3.84,10.85,9.98,0,8.11-8.78,11.95-13.15,15.65-1.68,1.39-2.83,2.88-2.88,4.22h16.18v5.18h-23.33Z"/>
        </g>
        <g>
          <path class="cls-2" d="M52,45.93l15.07-20.93h7.34l-.05,4.37v15.94h6.14v4.66h-6.14v3.46l.05,4.37h-6.05l.05-4.37v-3.46h-16.42v-4.03ZM68.41,45.31v-11.33l.1-3.22h-.1l-10.37,14.45v.1h10.37Z"/>
          <path class="cls-1" d="M67.26,57.79v-8.02h-15.27v-5.28l13.15-21.17h8.26v21.36h4.99v5.09h-4.99v8.02h-6.14ZM67.26,29.71h-.1l-9.22,14.98h9.31v-14.98Z"/>
        </g>
        <g>
          <path class="cls-2" d="M109.14,41.04h-.1c-2.3,2.93-5.42,4.18-8.78,4.18-4.99,0-10.75-2.78-10.75-10.22s5.57-11.67,12.43-11.67c7.78,0,13.59,5.62,13.59,15.84,0,10.99-6.72,18.43-15.51,18.43-4.66,0-7.63-2.11-8.93-3.84l3.98-3.12c1.49,1.3,3.07,2.26,5.23,2.26,3.98,0,8.4-3.41,8.83-11.86ZM109.05,36.14c-.72-5.71-3.5-8.16-7.25-8.16-4.08,0-6.1,2.88-6.1,6.58,0,3.41,1.68,6.05,5.9,6.05,3.17,0,5.42-1.49,7.44-4.46Z"/>
          <path class="cls-1" d="M108.47,40.94c-2.88,3.02-6,3.74-8.54,3.74-6.48,0-10.42-4.18-10.42-10.95s4.7-11.76,12.34-11.76c8.21,0,12.96,5.9,12.96,16.13s-4.99,19.49-14.64,19.49c-3.65,0-6.91-.91-9.79-3.12l2.88-4.61c2.26,1.92,4.37,2.64,6.82,2.64,5.28,0,8.16-4.7,8.5-11.57h-.1ZM101.85,26.97c-3.79,0-6.14,2.64-6.14,6.62s2.21,6.05,6,6.05c2.83,0,5.62-1.97,6.67-4.66,0-4.51-2.21-8.02-6.53-8.02Z"/>
        </g>
      </g>
    </g>
  </g>
</svg>