<?xml version="1.0" encoding="UTF-8"?>
<svg id="Layer_1" data-name="Layer 1" xmlns="http://www.w3.org/2000/svg" viewBox="0 0 185.35 155.28">
  <defs>
    <style>
      .cls-1, .cls-2 {
        fill: none;
      }

      .cls-2 {
        stroke: #231f20;
        stroke-miterlimit: 10;
      }

      .cls-3 {
        fill: #00a651;
      }

      .cls-4 {
        fill: #ec008c;
      }

      .cls-5 {
        fill: #fff200;
      }
    </style>
  </defs>
  <rect class="cls-1" width="185.35" height="155.28"/>
  <g>
    <g>
      <path class="cls-3" d="M44.82,66.21l.05-4.37v-21.55h-.1l-6.72,3.46h-.1v-5.38l9.36-4.94h3.89l-.05,4.37v24.05l.05,4.37h-6.38Z"/>
      <path class="cls-4" d="M39.01,123.81v-4.99h5.66v-23.52l-6.72.91v-4.03l8.83-2.83h4.13v29.47h5.66v4.99h-17.57Z"/>
      <polygon class="cls-5" points="44.67 95.29 46.79 89.34 37.95 92.17 37.95 96.2 44.67 95.29"/>
      <rect class="cls-5" x="39.01" y="118.81" width="17.57" height="4.99"/>
      <polygon class="cls-5" points="44.87 40.28 47.31 33.42 37.95 38.36 38.05 43.74 44.87 40.28"/>
    </g>
    <path class="cls-3" d="M78.61,57.42c2.74,2.88,5.18,4.27,8.4,4.27,4.22,0,6.86-2.3,6.86-6.34,0-4.27-2.93-6.24-6.82-6.24s-5.66,1.82-6.43,2.64l-4.61-1.68,1.25-17.23h20.98l-.77,5.14h-15.46l-.58,8.5h.1c1.68-1.15,3.89-2.06,7.01-2.06,5.9-.05,11.62,3.31,11.62,10.71s-5.62,11.28-12.96,11.28c-6.14,0-10.18-2.74-12.62-5.81l4.03-3.17Z"/>
    <path class="cls-4" d="M89.22,123.81c-5.38,0-9.17-1.58-12.05-6.62l5.18-2.74c1.58,3.26,3.7,4.27,6.67,4.27,4.37,0,6.67-3.02,6.67-7.15s-2.26-6.67-6.24-6.67c-2.74,0-4.42,1.3-5.57,3.41l-5.14-.96,1.34-18.58h19.49v5.18h-14.88l-.62,8.45h.1c2.21-1.78,4.37-2.4,6.96-2.4,6.86,0,10.85,4.46,10.85,11.52,0,7.73-5.18,12.29-12.77,12.29Z"/>
    <path class="cls-5" d="M83.89,108.3s1.58-3.32,5.57-3.41,5.31,2.73,5.31,2.73c0,0,2.15,3.16.29,7.38s-6.02,3.71-6.02,3.71c0,0-4.02.83-6.67-4.27l1.54-6.14Z"/>
    <path class="cls-5" d="M78.61,57.42l2.02-5.66s2.23-2.68,6.43-2.64,5.72,2.43,5.72,2.43c0,0,1.33,1.9,1.1,3.81s-.34,4.92-4.35,6.01-8.36-.65-10.92-3.94Z"/>
    <circle class="cls-2" cx="97.43" cy="35.46" r="4.56"/>
    <circle class="cls-2" cx="99.63" cy="91.45" r="4.56"/>
    <path class="cls-3" d="M126.38,49.26h.1c2.3-2.93,5.42-4.18,8.78-4.18,4.99,0,10.75,2.78,10.75,10.22s-5.57,11.67-12.43,11.67c-7.78,0-13.59-5.62-13.59-15.84,0-10.99,6.72-18.43,15.51-18.43,4.66,0,7.63,2.11,8.93,3.84l-3.98,3.12c-1.49-1.3-3.07-2.26-5.23-2.26-3.98,0-8.4,3.41-8.83,11.86ZM126.47,54.16c.72,5.71,3.5,8.16,7.25,8.16,4.08,0,6.1-2.88,6.1-6.58,0-3.41-1.68-6.05-5.9-6.05-3.17,0-5.42,1.49-7.44,4.46Z"/>
    <path class="cls-4" d="M141.54,96.49c-2.3-1.92-4.42-2.64-6.86-2.64-5.23,0-8.11,4.7-8.45,11.57h.1c2.83-3.02,5.95-3.74,8.54-3.74,6.43,0,10.37,4.18,10.37,10.94s-4.7,11.76-12.34,11.76c-8.16,0-12.91-5.9-12.91-16.13s4.99-19.49,14.59-19.49c3.7,0,6.91.91,9.84,3.12l-2.88,4.61ZM132.95,119.39c3.79,0,6.1-2.64,6.1-6.62s-2.16-6.05-5.95-6.05c-2.83,0-5.66,1.97-6.72,4.66,0,4.51,2.21,8.02,6.58,8.02Z"/>
    <circle class="cls-2" cx="142.84" cy="93.9" r="4.56"/>
    <circle class="cls-2" cx="142.84" cy="37.36" r="4.56"/>
  </g>
</svg>