<?xml version="1.0" encoding="UTF-8"?>
<svg id="Layer_1" data-name="Layer 1" xmlns="http://www.w3.org/2000/svg" viewBox="0 0 97.98 171.71">
  <defs>
    <style>
      .cls-1 {
        fill: none;
      }

      .cls-1, .cls-2 {
        stroke: #231f20;
        stroke-miterlimit: 10;
      }

      .cls-3 {
        fill: #00a651;
      }

      .cls-4 {
        fill: #ec008c;
      }

      .cls-2 {
        fill: #231f20;
        stroke-width: .25px;
      }

      .cls-5 {
        fill: #fff200;
      }
    </style>
  </defs>
  <g>
    <polygon class="cls-5" points="68.75 131.65 64.96 146.05 71.48 146.05 71.48 131.89 71.24 131.65 68.75 131.65"/>
    <polygon class="cls-5" points="43.3 131.65 39.89 144.75 45.76 144.75 45.76 131.65 43.3 131.65"/>
    <path class="cls-3" d="M26.5,131.65h6.86v6.29l-3.46,6.82h-3.36l2.78-6.58h-2.83v-6.53ZM36.49,131.65h6.82v6.29l-3.41,6.82h-3.36l2.78-6.58h-2.83v-6.53Z"/>
    <path class="cls-4" d="M51.18,146.05l3.02-7.54h-2.4v-6.86h6.86v6.43l-3.79,7.97h-3.7ZM61.26,146.05l3.02-7.54h-2.4v-6.86h6.86v6.43l-3.79,7.97h-3.7Z"/>
    <line class="cls-1" x1="71.48" y1="131.65" x2="71.48" y2="144.75"/>
    <line class="cls-1" x1="46.02" y1="131.65" x2="46.02" y2="144.75"/>
    <line class="cls-2" x1="26.5" y1="131.65" x2="71.08" y2="131.65"/>
    <line class="cls-2" x1="26.55" y1="144.75" x2="71.08" y2="144.75"/>
  </g>
  <g>
    <g>
      <path class="cls-3" d="M38.74,31.08c1.01-1.73,4.7-5.42,10.95-5.42,6.67,0,9.55,3.94,9.55,8.02,0,7.68-9.84,8.54-9.5,16.32h-4.99c-.05-.62-.05-1.1-.05-1.68,0-8.06,8.45-10.03,8.45-14.69,0-2.11-1.63-3.5-4.03-3.5-2.83,0-5.42,2.02-6.86,3.89l-3.5-2.93ZM43.83,60.6v-6.53h6.86v6.53h-6.86Z"/>
      <path class="cls-5" d="M42.24,34.01s3.82,5.88,2.79,11.64c0,0,.71-2.65,2.6-4.6s2.79-2.8,2.79-2.8c0,0,5.37-4.43,1-7.58,0,0-4.3-2.54-9.17,3.35Z"/>
    </g>
    <g>
      <path class="cls-4" d="M44.74,101.74v-2.35c0-5.42,6.38-7.83,6.38-12.77,0-1.87-1.2-3.07-3.12-3.07s-3.17,1.06-4.18,3.5l-5.09-1.73c1.54-4.85,5.18-6.72,9.89-6.72,5.62,0,8.78,2.98,8.78,7.73,0,6.48-7.82,9.6-7.82,13.63v1.78h-4.85ZM43.73,113.65v-6.86h6.86v6.86h-6.86Z"/>
      <path class="cls-5" d="M43.83,87.05s2.85,5.95,1.16,10.52c0,0,.45-1.33.89-2.02s1.29-1.82,1.63-2.22,4.84-4.62,3.33-8.15c0,0-.71-1.98-3.7-1.55,0,0-1.94,0-3.3,3.42Z"/>
    </g>
  </g>
</svg>