<?xml version="1.0" encoding="UTF-8"?>
<svg id="Layer_1" data-name="Layer 1" xmlns="http://www.w3.org/2000/svg" viewBox="0 0 136.27 192.45">
  <defs>
    <style>
      .cls-1 {
        fill: #00a651;
      }

      .cls-2 {
        fill: #ec008c;
      }

      .cls-3 {
        fill: #fff200;
      }
    </style>
  </defs>
  <g>
    <path class="cls-1" d="M76.39,84.28l-7.97-13.83h-9.5v9.31l.05,4.51h-4.46l.05-4.51v-25.3l-.05-4.51h14.07c4.9,0,12.86,1.01,12.86,10.22,0,6.29-4.32,8.88-8.54,9.84l9.07,14.16v.1h-5.57ZM58.92,66.66h8.16c4.32,0,9.6-.43,9.6-6.43,0-6.43-5.28-6.48-9.6-6.48h-8.16v12.91Z"/>
    <path class="cls-2" d="M74.14,141.88l-7.3-14.83h-7.92v14.83h-4.61v-34.47h10.66c8.93,0,12.87,3.31,12.87,9.55,0,4.7-2.54,7.54-6.62,8.88l8.11,16.03h-5.18ZM65.11,123.06c2.98,0,8.11-.48,8.11-5.86s-4.18-5.76-7.87-5.76h-6.43v11.62h6.19Z"/>
  </g>
  <rect class="cls-3" x="54.31" y="107.41" width="4.61" height="34.47"/>
  <path class="cls-3" d="M66.84,127.04s1.72-.24,4.37-1.2l8.11,16.03h-5.18l-7.3-14.83Z"/>
  <polygon class="cls-3" points="54.5 84.28 58.97 84.28 58.92 49.95 54.5 49.95 54.5 84.28"/>
  <polygon class="cls-3" points="68.42 70.45 76.39 84.28 81.96 84.28 72.89 70.02 68.42 70.45"/>
</svg>