<?xml version="1.0" encoding="UTF-8"?>
<svg id="Layer_1" xmlns="http://www.w3.org/2000/svg" version="1.1" viewBox="0 0 212.44 172.82">
  <!-- Generator: Adobe Illustrator 29.1.0, SVG Export Plug-In . SVG Version: 2.1.0 Build 142)  -->
  <defs>
    <style>
      .st0 {
        fill: #87331b;
      }

      .st1, .st2 {
        stroke-miterlimit: 10;
      }

      .st1, .st2, .st3, .st4 {
        fill: none;
        stroke: #87331b;
        stroke-linecap: round;
      }

      .st1, .st3 {
        stroke-width: 8px;
      }

      .st2, .st4 {
        stroke-width: 6px;
      }

      .st3, .st4 {
        stroke-linejoin: round;
      }
    </style>
  </defs>
  <g>
    <path class="st0" d="M26.27,90.68c0-13.13,10.21-23.6,22.36-23.6,11.44,0,18.59,8.65,20.61,17.03h-9.69c-1.04-3.84-4.75-8.06-10.92-8.06-7.02,0-13.07,6.18-13.07,14.63s6.04,14.63,13.07,14.63c6.17,0,9.88-4.23,11.25-8h9.69c-1.95,8.26-9.23,16.97-20.93,16.97s-22.36-10.47-22.36-23.6Z"/>
    <path class="st0" d="M98.07,95.13v18.3h-6.12l-1.32-3h-.3c-1.26,1.32-3.96,3.78-8.7,3.78-5.82,0-10.32-4.02-10.32-9.12,0-6.3,6-10.2,14.7-10.2h3.9v-.6c0-3.18-1.8-4.98-4.68-4.98s-4.08,1.86-4.32,3.12h-8.16c.42-5.16,4.5-10.38,12.54-10.38s12.78,5.28,12.78,13.08ZM89.91,101.91v-1.56h-4.14c-4.62,0-6.3,1.68-6.3,3.96,0,1.86,1.38,3.24,4.08,3.24,3.9,0,6.36-2.76,6.36-5.64Z"/>
    <path class="st0" d="M149.71,101.07h-22.02c.9,3.72,3.66,5.88,7.32,5.88,3.18,0,4.86-1.62,5.46-2.28h8.58c-1.62,4.14-6.72,9.54-13.92,9.54-8.64,0-15.66-7.2-15.66-16.08s7.2-16.08,15.54-16.08,15.06,6.72,15.06,15.6c0,1.62-.18,2.82-.36,3.42ZM127.69,95.25h14.52c-.96-3.54-3.72-5.94-7.2-5.94s-6.36,2.28-7.32,5.94ZM143.83,69.52l-6.6,9.72h-6.18l4.5-9.72h8.28Z"/>
  </g>
  <g>
    <path class="st0" d="M45.57,40.53l-4.99-5.49-2.1,1.91-1.83-2.02,6.33-5.75,1.83,2.02-2.1,1.91,4.99,5.49-2.12,1.93Z"/>
    <path class="st0" d="M51.29,24.91l2.61-1.19,4.2,9.24-2.61,1.19-1.58-3.48-3.08,1.4,1.58,3.48-2.61,1.19-4.2-9.24,2.61-1.19,1.49,3.27,3.08-1.4-1.49-3.27Z"/>
    <path class="st0" d="M61.25,29.86l4.61-.96.5,2.41-7.42,1.54-2.06-9.93,7.28-1.51.5,2.41-4.47.93.28,1.35,3.93-.82.47,2.26-3.93.82.31,1.5Z"/>
    <path class="st0" d="M76.33,20.76l2.8-.03.11,10.15-2.74.03-3.76-5.7.06,5.74-2.8.03-.11-10.15,2.73-.03,3.77,5.7-.06-5.74Z"/>
    <path class="st0" d="M80.59,25.82c.45-2.88,3.07-4.87,5.96-4.42,2.89.45,4.79,3.15,4.35,6.01-.44,2.87-3.07,4.87-5.96,4.42-2.89-.45-4.79-3.15-4.35-6.01ZM88.07,26.98c.24-1.56-.64-2.78-1.92-2.98-1.26-.19-2.49.7-2.73,2.26-.24,1.56.66,2.79,1.92,2.98,1.28.2,2.49-.7,2.73-2.26Z"/>
    <path class="st0" d="M92.15,27.65c1.14-2.68,4.18-3.96,6.87-2.81,2.69,1.15,3.87,4.24,2.73,6.9-1.14,2.67-4.18,3.96-6.87,2.81-2.69-1.15-3.87-4.24-2.73-6.9ZM99.11,30.62c.62-1.45.07-2.86-1.12-3.36-1.17-.5-2.58.06-3.2,1.52-.62,1.45-.05,2.86,1.12,3.36,1.19.51,2.58-.06,3.2-1.52Z"/>
    <path class="st0" d="M106.41,42.78l-2.44-2.29,1.04-5.19-3.08,3.27-2.09-1.97,6.95-7.39,2.09,1.97-2.97,3.16,4.88-1.36,2.32,2.19-5.6,1.42-1.11,6.2Z"/>
  </g>
  <polyline class="st4" points="38.55 136.54 42 149.42 51.08 149.42 53.86 136.54"/>
  <polyline class="st4" points="92.55 136.54 96 149.42 105.08 149.42 107.86 136.54"/>
  <path class="st2" d="M154.21,91.11s8.54-3.24,8.54,7.6-8.54,7.66-8.54,7.66"/>
  <path class="st1" d="M171.6,107.06c3.46.38,6.55.5,10.29,2.62,4.94,2.8,22.28,18.22-28.55,18.37,0,0-24.49.61-29.19-4.93,0,0-1.3-2.29-.21-3.1"/>
  <polyline class="st4" points="126.88 136.43 129.16 149.42 134.86 149.42 137.14 136.43"/>
  <polyline class="st4" points="159.97 136.43 162.25 149.46 167.95 149.46 170.23 136.43"/>
  <polyline class="st4" points="144.07 146.01 148.08 146.01 149.98 136.43"/>
  <polyline class="st4" points="177.59 146.01 181.75 146.01 184.16 133.53"/>
  <path class="st3" d="M105.32,60.43s0-21.71-30.23-21.71-31.27,21.71-31.27,21.71c0,0-20.56,1.26-17.55,12.25"/>
  <g>
    <path class="st1" d="M38.66,120.46s-8.64,7.35,9.72,7.61h27.59"/>
    <path class="st1" d="M111.03,120.46s8.64,7.35-9.72,7.61h-27.59"/>
  </g>
  <path class="st0" d="M101.99,78.34c-.9,0-1.68.12-2.28.36v-7.38c.84-.3,2.28-.66,4.14-.66,6.06,0,10.32,4.14,10.32,11.04v1.14s3.96,0,3.96,0v7.26h-3.96s0,23.34,0,23.34h-8.16v-23.34s-6.3,0-6.3,0v-7.26h6.6s0-.18,0-.18c0-2.94-1.56-4.32-4.32-4.32Z"/>
  <path class="st1" d="M105.32,60.43s20.56,1.26,17.55,12.25"/>
  <polygon class="st0" points="135.83 52.86 144.56 59.07 143.04 67.21 134.7 58.94 135.83 52.86"/>
</svg>